<?xml version="1.0" encoding="UTF-8"?>
<svg width="128px" height="128px" viewBox="0 0 128 128" version="1.1" xmlns="http://www.w3.org/2000/svg" xmlns:xlink="http://www.w3.org/1999/xlink">
    <!-- Generator: Sketch 46.2 (44496) - http://www.bohemiancoding.com/sketch -->
    <title>castle</title>
    <desc>Created with Sketch.</desc>
    <defs></defs>
    <g id="Page-1" stroke="none" stroke-width="1" fill="none" fill-rule="evenodd">
        <g id="castle">
            <circle id="Oval" fill="#222222" cx="64" cy="64" r="64"></circle>
            <g transform="translate(39.000000, 25.000000)" fill-rule="nonzero" fill="#FFFFFF">
                <g id="Group" transform="translate(4.000000, 0.000000)">
                    <polygon id="Shape" points="0.404142857 5.78485714 9.64253061 5.78485714 5.79606122 0.657428571 0.404142857 0.657428571"></polygon>
                    <polygon id="Shape" points="40.933898 0.657428571 35.5453265 0.657428571 31.6938367 5.78485714 40.933898 5.78485714"></polygon>
                    <polygon id="Shape" points="28.8188163 5.78485714 16.3707143 5.78485714 16.3707143 0.657428571 24.969 0.657428571"></polygon>
                    <polygon id="Shape" points="12.5192245 5.78485714 24.9673265 5.78485714 24.9673265 0.657428571 16.3690408 0.657428571"></polygon>
                </g>
                <polygon id="Shape" points="37.7181139 19 12.2827119 19 5 8 45 8"></polygon>
                <rect id="Rectangle-path" x="10" y="20" width="30" height="5"></rect>
                <polygon id="Shape" points="37.3455754 27 12.6527461 27 0 75.0614194 3.08681348 79 24.9991607 79 46.9131865 79 50 75.0614194"></polygon>
            </g>
        </g>
    </g>
</svg>