<?xml version="1.0" encoding="UTF-8"?>
<svg width="128px" height="128px" viewBox="0 0 128 128" version="1.1" xmlns="http://www.w3.org/2000/svg" xmlns:xlink="http://www.w3.org/1999/xlink">
    <!-- Generator: Sketch 46.2 (44496) - http://www.bohemiancoding.com/sketch -->
    <title>city</title>
    <desc>Created with Sketch.</desc>
    <defs></defs>
    <g id="Page-1" stroke="none" stroke-width="1" fill="none" fill-rule="evenodd">
        <g id="city">
            <circle id="Oval" fill="#222222" cx="64" cy="64" r="64"></circle>
            <g transform="translate(14.000000, 39.000000)" id="Shape" fill-rule="nonzero" fill="#FFFFFF">
                <path d="M97.9190564,47.4547781 L97.9190564,22.4190271 L97.9190564,21.9022053 L97.9190564,19.9402895 L96.6310907,19.9402895 L96.6310907,21.9022053 L95.8393596,21.9022053 L95.8393596,19.9402895 L94.5513939,19.9402895 L94.5513939,21.9022053 L93.7596629,21.9022053 L93.7596629,19.9402895 L92.4716972,19.9402895 L92.4716972,21.9022053 L91.9617475,21.9022053 L91.9617475,10.7303244 L91.9617475,9.52482501 L91.9617475,7.54158408 L90.1052317,7.54158408 L90.1052317,9.52482501 L89.143933,9.52482501 L89.143933,7.54158408 L87.2886639,7.54158408 L87.2886639,9.52482501 L86.9507755,9.52482501 L86.9507755,2.70327906 C87.5716922,2.92280288 88.191362,2.24792393 88.8122787,2.62801375 C88.8122787,2.19774706 88.8122787,1.76622595 88.8122787,1.33595926 C88.191362,0.953360596 87.5716922,1.62949397 86.9507755,1.41122457 L86.9507755,1.22807898 C86.9507755,1.14277829 86.8797067,1.07378509 86.7949229,1.07378509 C86.7101391,1.07378509 86.6403172,1.14277829 86.6403172,1.22807898 L86.6403172,9.52357059 L86.3036756,9.52357059 L86.3036756,7.54032966 L84.4484066,7.54032966 L84.4484066,9.52357059 L83.4871079,9.52357059 L83.4871079,7.54032966 L81.6318388,7.54032966 L81.6318388,9.52357059 L81.6318388,10.72907 L81.6318388,21.9009509 L81.282729,21.9009509 L81.282729,19.9390351 L79.9960102,19.9390351 L79.9960102,21.9009509 L79.2030323,21.9009509 L79.2030323,19.9390351 L77.9163134,19.9390351 L77.9163134,21.9009509 L77.5684505,21.9009509 L77.5684505,10.72907 L77.5684505,9.52357059 L77.5684505,7.54032966 L75.7094409,7.54032966 L75.7094409,9.52357059 L74.7493891,9.52357059 L74.7493891,7.54032966 L72.89412,7.54032966 L72.89412,9.52357059 L71.9091317,9.52357059 L71.9091317,7.54032966 L70.0526158,7.54032966 L70.0526158,9.52357059 L69.092564,9.52357059 L69.092564,7.54032966 L67.2360481,7.54032966 L67.2360481,9.52357059 L67.2360481,10.72907 L67.2360481,21.9009509 L66.7260984,21.9009509 L66.7260984,19.9390351 L65.4381328,19.9390351 L65.4381328,21.9009509 L64.6464017,21.9009509 L64.6464017,19.9390351 L63.358436,19.9390351 L63.358436,21.9009509 L62.5667049,21.9009509 L62.5667049,19.9390351 L61.2787392,19.9390351 L61.2787392,9.95007401 L59.0968032,7.7548358 L59.0968032,1.95062596 L59.0893222,1.95062596 L59.0893222,0 L57.5432647,0 L57.5432647,1.95062596 L57.0108723,1.95062596 L57.0108723,0 L55.4648147,0 L55.4648147,1.95062596 L54.9324223,1.95062596 L54.9324223,0 L53.3863648,0 L53.3863648,1.95062596 L52.8527255,1.95062596 L52.8527255,0 L51.306668,0 L51.306668,1.95062596 L50.7730288,1.95062596 L50.7730288,0 L49.2269712,0 L49.2269712,1.95062596 L48.693332,1.95062596 L48.693332,0 L47.1485213,0 L47.1485213,1.95062596 L46.6148821,1.95062596 L46.6148821,0 L45.0688245,0 L45.0688245,1.95062596 L44.5351853,1.95062596 L44.5351853,0 L42.9891277,0 L42.9891277,1.95062596 L42.4567353,1.95062596 L42.4567353,0 L40.9106778,0 L40.9106778,1.95062596 L40.9044437,1.95062596 L40.9044437,7.7548358 L38.7225076,9.95007401 L38.7225076,19.9390351 L37.4345419,19.9390351 L37.4345419,21.9009509 L36.6428108,21.9009509 L36.6428108,19.9390351 L35.3548451,19.9390351 L35.3548451,21.9009509 L34.5631141,21.9009509 L34.5631141,19.9390351 L33.2751484,19.9390351 L33.2751484,21.9009509 L32.7639519,21.9009509 L32.7639519,10.72907 L32.7639519,9.52357059 L32.7639519,7.54032966 L30.9086829,7.54032966 L30.9086829,9.52357059 L29.9473842,9.52357059 L29.9473842,7.54032966 L28.0908683,7.54032966 L28.0908683,9.52357059 L27.1071268,9.52357059 L27.1071268,7.54032966 L25.2506109,7.54032966 L25.2506109,9.52357059 L24.2893123,9.52357059 L24.2893123,7.54032966 L22.4340432,7.54032966 L22.4340432,9.52357059 L22.4340432,10.72907 L22.4340432,21.9009509 L22.0861802,21.9009509 L22.0861802,19.9390351 L20.7982146,19.9390351 L20.7982146,21.9009509 L20.0064835,21.9009509 L20.0064835,19.9390351 L18.717271,19.9390351 L18.717271,21.9009509 L18.369408,21.9009509 L18.369408,10.72907 L18.369408,9.52357059 L18.369408,7.54032966 L16.5141389,7.54032966 L16.5141389,9.52357059 L15.5528403,9.52357059 L15.5528403,7.54032966 L13.6963244,7.54032966 L13.6963244,9.52357059 L13.3596828,9.52357059 L13.3596828,2.70202464 C13.9805995,2.92154846 14.6015161,2.24666951 15.2224328,2.62675933 C15.2224328,2.19649264 15.2224328,1.76497152 15.2224328,1.33470483 C14.6015161,0.952106174 13.9805995,1.62823954 13.3596828,1.40997014 L13.3596828,1.22682456 C13.3596828,1.14152387 13.2911077,1.07253067 13.2050771,1.07253067 C13.1202933,1.07253067 13.0504713,1.14152387 13.0504713,1.22682456 L13.0504713,9.52231616 L12.7125829,9.52231616 L12.7125829,7.53907524 L10.8573138,7.53907524 L10.8573138,9.52231616 L9.89601516,9.52231616 L9.89601516,7.53907524 L8.0407461,7.53907524 L8.0407461,9.52231616 L8.0407461,10.7278155 L8.0407461,21.8996964 L7.52954965,21.8996964 L7.52954965,19.9377807 L6.24158396,19.9377807 L6.24158396,21.8996964 L5.44985288,21.8996964 L5.44985288,19.9377807 L4.16188719,19.9377807 L4.16188719,21.8996964 L3.36890928,21.8996964 L3.36890928,19.9377807 L2.08219041,19.9377807 L2.08219041,21.8996964 L2.08219041,22.4165182 L2.08219041,47.4547781 L0,47.4547781 L0,50 L100,50 L100,47.4547781 L97.9190564,47.4547781 Z M14.2848237,23.7060639 L11.8909281,23.7060639 L11.8909281,21.6074161 C11.8909281,20.9413181 12.427061,20.4019168 13.0866291,20.4019168 C13.7486908,20.4019168 14.2848237,20.9413181 14.2848237,21.6074161 L14.2848237,23.7060639 Z M14.2848237,18.086254 L11.8909281,18.086254 L11.8909281,15.9863519 C11.8909281,15.3215083 12.427061,14.7821069 13.0866291,14.7821069 C13.7486908,14.7821069 14.2848237,15.3215083 14.2848237,15.9863519 L14.2848237,18.086254 Z M28.6506907,23.7060639 L26.2567952,23.7060639 L26.2567952,21.6074161 C26.2567952,20.9413181 26.792928,20.4019168 27.453743,20.4019168 C28.1145579,20.4019168 28.6506907,20.9413181 28.6506907,21.6074161 L28.6506907,23.7060639 Z M28.6506907,18.086254 L26.2567952,18.086254 L26.2567952,15.9863519 C26.2567952,15.3215083 26.792928,14.7821069 27.453743,14.7821069 C28.1145579,14.7821069 28.6506907,15.3215083 28.6506907,15.9863519 L28.6506907,18.086254 Z M48.005087,14.5864171 C48.005087,13.4787626 48.8978106,12.5793422 50,12.5793422 C51.1009426,12.5793422 51.994913,13.4787626 51.994913,14.5864171 L51.994913,18.086254 L48.005087,18.086254 L48.005087,14.5864171 Z M48.005087,27.4329512 C48.005087,26.3252967 48.8978106,25.4271306 50,25.4271306 C51.1009426,25.4271306 51.994913,26.3252967 51.994913,27.4329512 L51.994913,30.9315337 L48.005087,30.9315337 L48.005087,27.4329512 Z M41.7684903,14.5864171 C41.7684903,13.4787626 42.6624607,12.5793422 43.7646501,12.5793422 C44.8668396,12.5793422 45.7608099,13.4787626 45.7608099,14.5864171 L45.7608099,18.086254 L41.7697372,18.086254 L41.7697372,14.5864171 L41.7684903,14.5864171 Z M41.7684903,27.4329512 C41.7684903,26.3252967 42.6624607,25.4271306 43.7646501,25.4271306 C44.8668396,25.4271306 45.7608099,26.3252967 45.7608099,27.4329512 L45.7608099,30.9315337 L41.7697372,30.9315337 L41.7697372,27.4329512 L41.7684903,27.4329512 Z M54.8875368,48.7982639 L45.1112164,48.7982639 L45.1112164,40.225545 C45.1112164,37.5084673 47.2993866,35.3082114 50,35.3082114 C52.6993666,35.3082114 54.8875368,37.5084673 54.8875368,40.225545 L54.8875368,48.7982639 Z M58.2302628,30.9327881 L54.2404369,30.9327881 L54.2404369,27.4342056 C54.2404369,26.3265511 55.1344073,25.4283851 56.2353499,25.4283851 C57.3387861,25.4283851 58.2315097,26.3265511 58.2315097,27.4342056 L58.2315097,30.9327881 L58.2302628,30.9327881 Z M58.2302628,18.086254 L54.2404369,18.086254 L54.2404369,14.5864171 C54.2404369,13.4787626 55.1344073,12.5793422 56.2353499,12.5793422 C57.3387861,12.5793422 58.2315097,13.4787626 58.2315097,14.5864171 L58.2315097,18.086254 L58.2302628,18.086254 Z M73.7432048,23.7060639 L71.3493093,23.7060639 L71.3493093,21.6074161 C71.3493093,20.9413181 71.8854421,20.4019168 72.5450102,20.4019168 C73.207072,20.4019168 73.7432048,20.9413181 73.7432048,21.6074161 L73.7432048,23.7060639 Z M73.7432048,18.086254 L71.3493093,18.086254 L71.3493093,15.9863519 C71.3493093,15.3215083 71.8854421,14.7821069 72.5450102,14.7821069 C73.207072,14.7821069 73.7432048,15.3215083 73.7432048,15.9863519 L73.7432048,18.086254 Z M88.107825,23.7060639 L85.7139295,23.7060639 L85.7139295,21.6074161 C85.7139295,20.9413181 86.2500623,20.4019168 86.9108773,20.4019168 C87.5716922,20.4019168 88.107825,20.9413181 88.107825,21.6074161 L88.107825,23.7060639 L88.107825,23.7060639 Z M88.107825,18.086254 L85.7139295,18.086254 L85.7139295,15.9863519 C85.7139295,15.3215083 86.2500623,14.7821069 86.9108773,14.7821069 C87.5716922,14.7821069 88.107825,15.3215083 88.107825,15.9863519 L88.107825,18.086254 L88.107825,18.086254 Z"></path>
            </g>
        </g>
    </g>
</svg>