<?xml version="1.0" encoding="UTF-8"?>
<svg width="128px" height="128px" viewBox="0 0 128 128" version="1.1" xmlns="http://www.w3.org/2000/svg" xmlns:xlink="http://www.w3.org/1999/xlink">
    <!-- Generator: Sketch 46.2 (44496) - http://www.bohemiancoding.com/sketch -->
    <title>misc</title>
    <desc>Created with Sketch.</desc>
    <defs></defs>
    <g id="Page-1" stroke="none" stroke-width="1" fill="none" fill-rule="evenodd">
        <g id="misc">
            <circle id="Oval" fill="#222222" cx="64" cy="64" r="64"></circle>
            <g id="location" transform="translate(36.000000, 25.000000)" fill-rule="nonzero" fill="#FFFFFF">
                <path d="M28,0.82 C18.5373832,0.813802589 9.73024859,5.65222571 4.66050218,13.6421461 C-0.409244233,21.6320664 -1.03583296,31.6611912 3,40.22 C3.54767893,41.3471426 4.17597709,42.4332964 4.88,43.47 L27.06,76.68 C27.268283,76.9901585 27.6164054,77.1773211 27.99,77.18 L27.99,77.18 C28.3671387,77.1806394 28.7197371,76.9930871 28.93,76.68 L50.93,43.68 C51.7459949,42.5103858 52.4714393,41.2801392 53.1,40 C57.042225,31.4456234 56.3533132,21.4720067 51.2723787,13.5408906 C46.1914442,5.6097746 37.4190482,0.81470435 28,0.82 Z M28,38.38 C22.4771525,38.38 18,33.9028475 18,28.38 C18,22.8571525 22.4771525,18.38 28,18.38 C33.5228475,18.38 38,22.8571525 38,28.38 C38,33.9028475 33.5228475,38.38 28,38.38 L28,38.38 Z" id="Shape"></path>
            </g>
        </g>
    </g>
</svg>