<?xml version="1.0" encoding="UTF-8"?>
<svg width="128px" height="128px" viewBox="0 0 128 128" version="1.1" xmlns="http://www.w3.org/2000/svg" xmlns:xlink="http://www.w3.org/1999/xlink">
    <!-- Generator: Sketch 46.2 (44496) - http://www.bohemiancoding.com/sketch -->
    <title>nature</title>
    <desc>Created with Sketch.</desc>
    <defs></defs>
    <g id="Page-1" stroke="none" stroke-width="1" fill="none" fill-rule="evenodd">
        <g id="nature">
            <circle id="Oval" fill="#222222" cx="64" cy="64" r="64"></circle>
            <g id="noun_1179944_cc" transform="translate(36.000000, 19.000000)" fill-rule="nonzero" fill="#FFFFFF">
                <path d="M28.533,0.087 C28.865,0.155 29.166,0.337 29.433,0.638 C45.332,17.304 54.066,32.12 55.633,45.087 C57.399,58.454 51.766,69.888 38.733,79.388 C38.333,79.656 37.899,79.771 37.434,79.738 C36.934,79.705 36.516,79.539 36.184,79.238 C35.817,78.871 35.616,78.455 35.582,77.988 C34.648,71.521 32.766,65.422 29.934,59.689 L29.934,87.988 C29.934,88.554 29.75,89.039 29.383,89.439 C28.983,89.804 28.5,89.988 27.934,89.988 C27.366,89.988 26.899,89.804 26.534,89.439 C26.134,89.039 25.934,88.554 25.934,87.988 L25.934,59.088 C22.967,64.856 21.034,71.039 20.133,77.639 C20.067,78.106 19.85,78.522 19.483,78.889 C19.116,79.19 18.7,79.356 18.233,79.389 C17.766,79.422 17.35,79.289 16.983,78.989 C4.116,69.522 -1.417,58.157 0.383,44.889 C2.016,31.989 10.733,17.239 26.533,0.639 C26.799,0.338 27.115,0.157 27.482,0.088 C27.816,-0.013 28.166,-0.013 28.533,0.087 Z" id="Shape"></path>
            </g>
        </g>
    </g>
</svg>