<?xml version="1.0" encoding="UTF-8"?>
<svg width="128px" height="128px" viewBox="0 0 128 128" version="1.1" xmlns="http://www.w3.org/2000/svg" xmlns:xlink="http://www.w3.org/1999/xlink">
    <!-- Generator: Sketch 46.2 (44496) - http://www.bohemiancoding.com/sketch -->
    <title>ruin</title>
    <desc>Created with Sketch.</desc>
    <defs></defs>
    <g id="Page-1" stroke="none" stroke-width="1" fill="none" fill-rule="evenodd">
        <g id="ruin">
            <circle id="Oval" fill="#222222" cx="64" cy="64" r="64"></circle>
            <g transform="translate(26.000000, 29.000000)" id="Shape" fill-rule="nonzero" fill="#FFFFFF">
                <path d="M37.9179076,25 C26.7723084,25 15.6267092,25 4.48110996,25 C2.62384116,25 2.01402135,24.4103416 2.01203496,22.6180905 C2.01203496,21.8868365 2.04183072,21.1517032 2.00408943,20.4204493 C1.95045707,19.3555728 2.42520278,18.6689311 3.37866698,18.1568594 C11.5685272,13.7712752 19.7444827,9.36241509 27.9244109,4.96131361 C30.6914435,3.47359002 33.468408,2.00526308 36.2155767,0.484565165 C37.4312435,-0.186559168 38.5396457,-0.132248529 39.7851083,0.472927171 C41.0961216,1.10913752 41.9880079,2.00720274 42.6554328,3.26798545 C43.7856851,5.40355739 45.068889,7.45960304 46.2428418,9.57383865 C46.5825135,10.1828937 47.0135587,10.4214726 47.7048203,10.4389296 C50.9187892,10.5203955 54.1307717,10.6193185 57.3427542,10.7667331 C57.755922,10.7861297 58.268409,11.0421656 58.5345845,11.3525121 C59.909162,12.9566156 61.1923659,14.6363661 62.5709162,16.23853 C62.9403836,16.6671961 63.4925983,17.0512499 64.0368674,17.2161215 C67.0720618,18.1374627 70.1291064,18.9967346 73.1901237,19.8443686 C73.7880252,20.0092401 74.0323504,20.288552 73.9965955,20.8937277 C73.9568679,21.5454554 73.9926228,22.2010624 73.98865,22.8547297 C73.9826908,24.309479 73.2656063,24.9980603 71.7559547,24.9980603 C60.4792541,25 49.1985809,25 37.9179076,25 Z"></path>
                <path d="M38.4497542,70.9942045 C26.4782153,70.9922726 14.5066764,70.9884089 2.53513741,71 C1.59611549,71 0.688790515,70.8860212 0.316351441,69.9568042 C-0.0976898693,68.9194038 -0.167026931,67.8047298 0.484741448,66.8059663 C0.912650171,66.1510712 1.63969879,66.0448197 2.39646329,66.0467516 C8.99735155,66.054479 15.5982398,66.0525471 22.1991281,66.0525471 C31.6071768,66.0525471 41.0132445,66.0448197 50.4193121,66.0680019 C50.9799518,66.0699337 51.5802126,66.2225494 52.095288,66.4466433 C53.3116581,66.9779005 54.4983124,67.578704 55.6790235,68.1853031 C56.2693791,68.4886026 56.7785112,68.4634886 57.1608556,67.9341633 C58.3455288,66.2940276 59.9402812,65.9385683 61.9411507,66.0081147 C66.1845789,66.1549349 70.4379123,66.0506153 74.6872837,66.0525471 C76.2840172,66.054479 76.9872931,66.73642 76.9991794,68.2838271 C77.0011605,68.4673523 76.9991794,68.6489457 76.9971984,68.830539 C76.9793688,70.2716948 76.2543013,70.9864771 74.7685071,70.9884089 C68.1161113,70.9942045 61.4597534,70.9903408 54.8073576,70.9903408 C49.3535024,70.9942045 43.9016283,70.9942045 38.4497542,70.9942045 Z"></path>
                <path d="M38.4133452,63.9919097 C28.1011991,63.9919097 17.7890529,63.9880124 7.47690683,63.9977558 C6.5237333,63.9997045 5.61623267,63.8301684 5.29850816,62.8811562 C4.94106809,61.8074278 4.7583765,60.616778 5.61424689,59.6716632 C5.94388607,59.3092068 6.58330665,59.0519797 7.08769431,59.0402875 C9.68509217,58.9779294 12.2844758,58.999365 14.8818737,59.0285954 C15.2571858,59.0344415 15.658313,59.2098236 16.0018526,59.3891031 C17.2092057,60.012684 18.3907437,60.6830335 19.5921395,61.3183066 C20.2792188,61.6846604 20.4976544,61.5463033 20.5254553,60.7785193 C20.5870144,59.0188519 20.5870144,59.0149546 22.4179019,59.0149546 C38.1134927,59.0130059 53.8110692,59.0169032 69.50666,59.0071598 C70.4578478,59.0052111 71.3613768,59.1669524 71.691016,60.1159646 C72.0643423,61.189693 72.2430624,62.4017784 71.3752773,63.3176629 C70.9860648,63.7307852 70.2016824,63.9646281 69.5940343,63.9685255 C62.9257911,64.0133453 56.2555622,63.9977558 49.587319,63.9958071 C45.8600134,63.9919097 42.1366793,63.9919097 38.4133452,63.9919097 Z"></path>
                <path d="M65.5378869,50.8905519 C67.5043482,51.4381334 68.0003055,52.1176861 67.996446,54.2036173 C67.9925864,55.9960606 67.9925864,55.9980303 66.2326131,56 C62.2244285,56 58.214314,55.9980303 54.2061294,55.9960606 C53.2219338,55.9960606 53.06948,55.8404529 53.0617608,54.8536242 C53.059831,54.6152883 53.0617608,54.3769525 53.0617608,54.1386166 C53.0559714,52.1334439 53.5808757,51.4282849 55.5627754,50.8787336 C55.5627754,50.3331217 55.566635,49.7579641 55.5608456,49.1828065 C55.556986,48.6509827 55.8059296,48.4027982 56.3250445,48.4106771 C56.7148631,48.418556 57.1066116,48.3949194 57.4945004,48.4146165 C58.1506308,48.4481017 58.2509801,48.1467349 58.0425623,47.5774865 C57.3343274,45.6412538 56.612584,43.7069909 55.9603132,41.7490913 C55.7306676,41.0596901 55.5955819,40.3111973 55.5782138,39.5843714 C55.5299689,37.4354092 55.5608456,35.286447 55.5608456,33.4585489 C54.7155953,32.8006631 53.9166601,32.4008104 53.4400007,31.7547429 C52.7452744,30.8092784 53.0656204,29.5998716 53.1273738,28.5027387 C53.1389526,28.3215247 53.6271908,28.0240973 53.8954323,28.0221276 C58.3204528,27.9925818 62.747403,28.0004607 67.1724234,28.0024304 C67.7127661,28.0024304 67.9906566,28.2821303 67.9906566,28.8356211 C67.9925864,29.4206273 68.0157439,30.0056335 67.9810076,30.58867 C67.9057456,31.9241387 67.2225981,32.6214188 65.5340273,33.1039997 C65.5378869,39.0072441 65.5378869,44.9223068 65.5378869,50.8905519 Z"></path>
                <path d="M43.2316957,33.1227463 C43.2316957,34.5716399 43.2722573,35.9791927 43.2073587,37.3808397 C43.189106,37.8080271 42.9295118,38.2450575 42.7003388,38.63681 C42.5441767,38.9045403 42.2784983,39.1348671 42.0128199,39.3140102 C40.7817756,40.1486989 40.3660193,41.300333 40.6175011,42.692137 C40.6823997,43.056329 40.8020564,43.5366687 41.073819,43.719749 C43.0126631,45.046589 43.5663288,46.8537687 43.2438642,49.0428579 C43.1566567,49.6393453 43.2296676,50.2555188 43.2296676,50.8421632 C45.5720995,51.5922018 46.3671067,52.9899116 45.8479183,55.3502694 C45.7221774,55.9191964 45.2962807,55.995972 44.7892608,55.9940034 C42.6009629,55.986129 40.4126651,55.9920348 38.2243673,55.9920348 C35.9001881,55.9920348 33.5739808,55.9782545 31.2477736,55.9999092 C30.4892718,56.005815 30.112049,55.7243044 30.1647791,54.96836 C30.1810037,54.7301587 30.1647791,54.4899889 30.1647791,54.2517876 C30.162751,52.1060078 30.6373216,51.4799913 32.7586928,50.8736608 C32.7586928,44.9698134 32.7586928,39.0541543 32.7586928,33.1463696 C30.4771033,32.4022368 29.576636,30.7919176 30.1850599,28.5772366 C30.3432501,28.0043724 30.8076803,28.0024038 31.2944194,28.0024038 C34.5778802,28.0083096 37.861341,28.0043724 41.1427737,28.0043724 C42.373818,28.0043724 43.6068904,28.0220899 44.8359066,28.0004352 C45.5720995,27.986655 45.8986203,28.2996632 45.8621149,29.0044239 C45.8479183,29.2701857 45.8600868,29.5359474 45.8580587,29.8017091 C45.8540026,31.8943366 45.3530669,32.5400392 43.2316957,33.1227463 Z"></path>
                <path d="M19.3532692,50.8707438 C21.5060038,51.492969 22.4693717,53.290727 21.7798837,55.43701 C21.6936977,55.702834 21.1535988,55.968658 20.8222615,55.9725962 C17.7233962,56.0139466 14.6245309,55.996225 11.5256656,55.996225 C10.4148239,55.996225 9.30398218,55.9981941 8.19505572,55.9942559 C7.1397561,55.9903178 7.01526522,55.8564212 7.01334997,54.7379912 C7.01334997,54.5509299 7.01526522,54.3678066 7.01526522,54.1807453 C7.02101095,52.1014106 7.49982203,51.4496495 9.49550662,50.8746819 C9.49550662,49.5711596 9.49359137,48.2479467 9.49550662,46.9227646 C9.49742186,45.9559528 9.5855231,45.8673448 10.5067556,45.8594685 C10.7404154,45.8574994 10.97216,45.8653757 11.2039046,45.8574994 C11.3303107,45.8515922 11.4873607,45.8693138 11.5812077,45.8023656 C12.3109158,45.2707175 11.9144602,44.4870289 11.9221212,43.8214843 C11.9240364,43.6324538 11.4490558,43.2898362 11.1713454,43.2662074 C9.49550662,43.1204964 9.49359137,43.1441252 9.49359137,41.429068 C9.49359137,38.6704052 9.49359137,35.9117425 9.49359137,33.1097602 C8.26208927,32.8715032 7.2910604,32.3044119 7.08229877,30.9693845 C6.96546887,30.21917 6.99611278,29.4335123 7.03441766,28.6675453 C7.06314633,28.0866706 7.51322874,27.9980625 7.99395507,28.0000316 C9.98389392,28.0079079 11.9719175,28.0039697 13.9599411,28.0039697 C16.2333361,28.0039697 18.5048159,28.0000316 20.7782109,28.0039697 C21.6439014,28.0039697 21.8220191,28.1930002 21.8315953,29.071204 C21.837341,29.5752851 21.852663,30.0813353 21.8258496,30.5834474 C21.7569008,31.7668566 21.0789043,32.6391533 19.9546559,32.9207298 C19.4873363,33.0369048 19.2077106,33.2574403 18.9855422,33.7004803 C18.3592573,34.9488687 17.6697694,36.163783 17.0224168,37.4003571 C16.6910795,38.0324275 16.788757,38.2096436 17.4897364,38.1997982 C19.6616235,38.1663241 19.3417777,38.1820766 19.3494387,40.2259681 C19.3609301,43.490681 19.3513539,46.757363 19.3513539,50.022076 C19.3532692,50.3134979 19.3532692,50.6009816 19.3532692,50.8707438 Z"></path>
            </g>
        </g>
    </g>
</svg>