<?xml version="1.0" encoding="UTF-8"?>
<svg width="128px" height="128px" viewBox="0 0 128 128" version="1.1" xmlns="http://www.w3.org/2000/svg" xmlns:xlink="http://www.w3.org/1999/xlink">
    <!-- Generator: Sketch 46.2 (44496) - http://www.bohemiancoding.com/sketch -->
    <title>village</title>
    <desc>Created with Sketch.</desc>
    <defs></defs>
    <g id="Page-1" stroke="none" stroke-width="1" fill="none" fill-rule="evenodd">
        <g id="village">
            <circle id="Oval" fill="#222222" cx="64" cy="64" r="64"></circle>
            <g transform="translate(16.000000, 32.000000)" id="Shape" fill-rule="nonzero" fill="#FFFFFF">
                <path d="M70.579,27.714 L49.546,6.682 C48.721,5.857 47.26,5.857 46.435,6.682 L25.247,27.871 C24.618,28.5 24.43,29.446 24.77,30.268 C25.11,31.09 25.913,31.626 26.803,31.626 L30.44,31.626 L30.44,60.304 C30.44,61.518 31.425,62.504 32.64,62.504 L63.343,62.504 C64.559,62.504 65.543,61.518 65.543,60.304 L65.543,31.626 L69.18,31.626 C69.188,31.627 69.194,31.626 69.198,31.626 C70.413,31.626 71.398,30.641 71.398,29.426 C71.397,28.734 71.078,28.117 70.579,27.714 Z"></path>
                <path d="M95.055,22.588 L73.867,1.399 C73.041,0.574 71.58,0.574 70.756,1.399 L60,12.155 L72.967,25.122 C74.21,26.21 74.918,27.766 74.918,29.426 C74.918,32.536 72.423,35.074 69.33,35.145 L69.301,35.147 L69.189,35.147 L69.073,35.147 L69.064,35.147 L69.064,57.222 L87.663,57.222 C88.878,57.222 89.862,56.237 89.862,55.022 L89.862,26.344 L93.5,26.344 C94.39,26.344 95.192,25.809 95.532,24.987 C95.872,24.165 95.684,23.217 95.055,22.588 Z"></path>
                <path d="M0.945,22.588 L22.133,1.399 C22.958,0.574 24.419,0.574 25.244,1.399 L36,12.155 L23.033,25.122 C21.79,26.21 21.082,27.766 21.082,29.426 C21.082,32.536 23.577,35.074 26.67,35.145 L26.699,35.147 L26.811,35.147 L26.927,35.147 L26.936,35.147 L26.936,57.222 L8.338,57.222 C7.123,57.222 6.138,56.237 6.138,55.022 L6.138,26.344 L2.501,26.344 C1.611,26.344 0.809,25.809 0.468,24.987 C0.128,24.165 0.316,23.217 0.945,22.588 Z"></path>
            </g>
        </g>
    </g>
</svg>